<svg width="12" height="9" viewBox="0 0 12 9" fill="none" xmlns="http://www.w3.org/2000/svg">
<path d="M0.0652457 4.15663C0.00035171 4.3207 -0.016612 4.50125 0.0164989 4.67543C0.0496098 4.84961 0.131308 5.00959 0.251258 5.13512L3.68005 8.72594C3.75912 8.81168 3.85371 8.88007 3.95829 8.92712C4.06287 8.97417 4.17535 8.99893 4.28917 8.99997C4.40299 9.001 4.51586 8.97829 4.62121 8.93315C4.72656 8.88801 4.82226 8.82136 4.90275 8.73707C4.98323 8.65278 5.04688 8.55255 5.08998 8.44223C5.13308 8.3319 5.15477 8.21369 5.15378 8.09449C5.15279 7.9753 5.12915 7.8575 5.08422 7.74798C5.0393 7.63845 4.97399 7.5394 4.89212 7.45659L2.92571 5.39725L11.1428 5.39726C11.3701 5.39726 11.5882 5.30268 11.7489 5.13432C11.9097 4.96597 12 4.73764 12 4.49955C12 4.26147 11.9097 4.03313 11.7489 3.86478C11.5882 3.69643 11.3701 3.60185 11.1428 3.60185L2.92571 3.60185L4.89127 1.54341C4.97314 1.4606 5.03844 1.36154 5.08336 1.25202C5.12829 1.1425 5.15194 1.0247 5.15293 0.905503C5.15391 0.786307 5.13223 0.668099 5.08913 0.557774C5.04602 0.44745 4.98237 0.347219 4.90189 0.262931C4.82141 0.178643 4.7257 0.111985 4.62035 0.0668473C4.51501 0.0217099 4.40213 -0.00100332 4.28831 3.24534e-05C4.17449 0.00106823 4.06201 0.0258334 3.95743 0.0728812C3.85285 0.119929 3.75826 0.188317 3.67919 0.274057L0.2504 3.86487C0.170986 3.94845 0.10807 4.04759 0.0652457 4.15663V4.15663Z" fill="#1F2A37"/>
</svg>
