<svg width="16" height="16" viewBox="0 0 16 16" fill="none" xmlns="http://www.w3.org/2000/svg">
<path d="M16 3.2C16 2.77565 15.8314 2.36869 15.5314 2.06863C15.2313 1.76857 14.8243 1.6 14.4 1.6H12.8V0.8C12.8 0.587827 12.7157 0.384344 12.5657 0.234315C12.4157 0.0842855 12.2122 0 12 0C11.7878 0 11.5843 0.0842855 11.4343 0.234315C11.2843 0.384344 11.2 0.587827 11.2 0.8V1.6H8.8V0.8C8.8 0.587827 8.71571 0.384344 8.56569 0.234315C8.41566 0.0842855 8.21217 0 8 0C7.78783 0 7.58434 0.0842855 7.43431 0.234315C7.28429 0.384344 7.2 0.587827 7.2 0.8V1.6H4.8V0.8C4.8 0.587827 4.71571 0.384344 4.56569 0.234315C4.41566 0.0842855 4.21217 0 4 0C3.78783 0 3.58434 0.0842855 3.43431 0.234315C3.28429 0.384344 3.2 0.587827 3.2 0.8V1.6H1.6C1.17565 1.6 0.768687 1.76857 0.468629 2.06863C0.168571 2.36869 0 2.77565 0 3.2V4.8H16V3.2Z" fill="#233876" fill-opacity="0.6"/>
<path d="M0 6.4V14.4C0 14.8243 0.168571 15.2313 0.468629 15.5314C0.768687 15.8314 1.17565 16 1.6 16H14.4C14.8243 16 15.2313 15.8314 15.5314 15.5314C15.8314 15.2313 16 14.8243 16 14.4V6.4H0ZM9.6 12H8.8V12.8C8.8 13.0122 8.71571 13.2157 8.56569 13.3657C8.41566 13.5157 8.21217 13.6 8 13.6C7.78783 13.6 7.58434 13.5157 7.43431 13.3657C7.28429 13.2157 7.2 13.0122 7.2 12.8V12H6.4C6.18783 12 5.98434 11.9157 5.83431 11.7657C5.68429 11.6157 5.6 11.4122 5.6 11.2C5.6 10.9878 5.68429 10.7843 5.83431 10.6343C5.98434 10.4843 6.18783 10.4 6.4 10.4H7.2V9.6C7.2 9.38783 7.28429 9.18434 7.43431 9.03431C7.58434 8.88428 7.78783 8.8 8 8.8C8.21217 8.8 8.41566 8.88428 8.56569 9.03431C8.71571 9.18434 8.8 9.38783 8.8 9.6V10.4H9.6C9.81217 10.4 10.0157 10.4843 10.1657 10.6343C10.3157 10.7843 10.4 10.9878 10.4 11.2C10.4 11.4122 10.3157 11.6157 10.1657 11.7657C10.0157 11.9157 9.81217 12 9.6 12Z" fill="#233876" fill-opacity="0.6"/>
</svg>
