<svg width="16" height="16" viewBox="0 0 16 16" fill="none" xmlns="http://www.w3.org/2000/svg">
<path d="M13.7618 11.9836C13.3804 11.9836 13.0147 11.8433 12.745 11.5938L8.00879 7.21192L3.27259 11.5938C3.13992 11.7209 2.98121 11.8222 2.80574 11.892C2.63027 11.9617 2.44154 11.9984 2.25057 12C2.05959 12.0015 1.8702 11.9678 1.69345 11.9009C1.51669 11.834 1.3561 11.7352 1.22106 11.6103C1.08602 11.4853 0.979224 11.3368 0.906907 11.1732C0.83459 11.0097 0.7982 10.8345 0.799859 10.6578C0.801518 10.4811 0.841195 10.3065 0.916573 10.1441C0.991951 9.9818 1.10152 9.83497 1.23889 9.71222L6.99194 4.3896C7.26166 4.14014 7.62742 4 8.00879 4C8.39017 4 8.75593 4.14014 9.02565 4.3896L14.7787 9.71222C14.9798 9.89831 15.1167 10.1354 15.1722 10.3935C15.2277 10.6516 15.1992 10.9191 15.0903 11.1622C14.9815 11.4053 14.7972 11.6131 14.5607 11.7593C14.3243 11.9055 14.0463 11.9836 13.7618 11.9836Z" fill="#9CA3AF"/>
</svg>
