<svg width="20" height="20" viewBox="0 0 20 20" fill="none" xmlns="http://www.w3.org/2000/svg">
<path d="M8.14648 0.682617C9.9893 0.316058 11.8998 0.5046 13.6357 1.22363C15.3714 1.94267 16.8556 3.15956 17.8994 4.72168C18.9433 6.28395 19.5 8.12108 19.5 10C19.4971 12.5187 18.4948 14.9329 16.7139 16.7139C14.9328 18.495 12.5179 19.4963 9.99902 19.499C8.12044 19.4988 6.28367 18.9431 4.72168 17.8994C3.15956 16.8556 1.94267 15.3714 1.22363 13.6357C0.5046 11.8998 0.316058 9.9893 0.682617 8.14648C1.0492 6.30373 1.95367 4.61078 3.28223 3.28223C4.61078 1.95367 6.30373 1.0492 8.14648 0.682617ZM11.3516 10.6445L13.6279 12.9219C13.6978 12.9918 13.7463 13.0808 13.7656 13.1777C13.7848 13.2746 13.7741 13.3755 13.7363 13.4668C13.6985 13.5578 13.6347 13.6356 13.5527 13.6904C13.4705 13.7454 13.3733 13.7744 13.2744 13.7744C13.1422 13.7742 13.0154 13.7223 12.9219 13.6289L10.6445 11.3516C10.7971 11.2788 10.9387 11.1824 11.0605 11.0605C11.1824 10.9387 11.2788 10.7971 11.3516 10.6445ZM10.0078 9.5127C10.1388 9.51156 10.2651 9.56144 10.3594 9.65234L10.5 9.79297V10C10.5 10.1326 10.4473 10.2597 10.3535 10.3535C10.2597 10.4473 10.1326 10.5 10 10.5C9.86855 10.5 9.74294 10.4477 9.64941 10.3555C9.56076 10.2617 9.51157 10.1373 9.5127 10.0078C9.51387 9.87677 9.56651 9.75185 9.65918 9.65918C9.75185 9.56651 9.87677 9.51387 10.0078 9.5127ZM10 5.5C10.1326 5.5 10.2597 5.55272 10.3535 5.64648C10.4473 5.74025 10.5 5.86739 10.5 6V8.5957C10.3402 8.54069 10.1712 8.5112 9.99902 8.5127C9.82705 8.51422 9.65867 8.54582 9.5 8.60352V6C9.5 5.86739 9.55272 5.74025 9.64648 5.64648C9.74025 5.55272 9.86739 5.5 10 5.5ZM18.5 9.99902C18.4974 7.74576 17.6011 5.58549 16.0078 3.99219C14.4145 2.39888 12.2542 1.50264 10.001 1.5H10C8.31886 1.5 6.67516 1.99863 5.27734 2.93262C3.87973 3.86655 2.79078 5.19411 2.14746 6.74707C1.50413 8.30021 1.33514 10.0094 1.66309 11.6582C1.99106 13.307 2.80051 14.822 3.98926 16.0107C5.178 17.1995 6.69296 18.0089 8.3418 18.3369C9.9906 18.6649 11.6998 18.4959 13.2529 17.8525C14.8059 17.2092 16.1335 16.1203 17.0674 14.7227C18.0014 13.3248 18.5 11.6811 18.5 10V9.99902Z" fill="#E02424" stroke="#E02424"/>
</svg>
