<svg width="32" height="32" viewBox="0 0 32 32" fill="none" xmlns="http://www.w3.org/2000/svg">
<rect width="32" height="32" rx="8" fill="#E1EFFE"/>
<path d="M14.1465 6.68262C15.9893 6.31606 17.8998 6.5046 19.6357 7.22363C21.3714 7.94267 22.8556 9.15956 23.8994 10.7217C24.9433 12.2839 25.5 14.1211 25.5 16C25.4971 18.5187 24.4948 20.9329 22.7139 22.7139C20.9328 24.495 18.5179 25.4963 15.999 25.499C14.1204 25.4988 12.2837 24.9431 10.7217 23.8994C9.15956 22.8556 7.94267 21.3714 7.22363 19.6357C6.5046 17.8998 6.31606 15.9893 6.68262 14.1465C7.0492 12.3037 7.95367 10.6108 9.28223 9.28223C10.6108 7.95367 12.3037 7.0492 14.1465 6.68262ZM17.3516 16.6445L19.6279 18.9219C19.6978 18.9918 19.7463 19.0808 19.7656 19.1777C19.7848 19.2746 19.7741 19.3755 19.7363 19.4668C19.6985 19.5578 19.6347 19.6356 19.5527 19.6904C19.4705 19.7454 19.3733 19.7744 19.2744 19.7744C19.1422 19.7742 19.0154 19.7223 18.9219 19.6289L16.6445 17.3516C16.7971 17.2788 16.9387 17.1824 17.0605 17.0605C17.1824 16.9387 17.2788 16.7971 17.3516 16.6445ZM16.0078 15.5127C16.1388 15.5116 16.2651 15.5614 16.3594 15.6523L16.5 15.793V16C16.5 16.1326 16.4473 16.2597 16.3535 16.3535C16.2597 16.4473 16.1326 16.5 16 16.5C15.8685 16.5 15.7429 16.4477 15.6494 16.3555C15.5608 16.2617 15.5116 16.1373 15.5127 16.0078C15.5139 15.8768 15.5665 15.7519 15.6592 15.6592C15.7519 15.5665 15.8768 15.5139 16.0078 15.5127ZM16 11.5C16.1326 11.5 16.2597 11.5527 16.3535 11.6465C16.4473 11.7403 16.5 11.8674 16.5 12V14.5957C16.3402 14.5407 16.1712 14.5112 15.999 14.5127C15.827 14.5142 15.6587 14.5458 15.5 14.6035V12C15.5 11.8674 15.5527 11.7403 15.6465 11.6465C15.7403 11.5527 15.8674 11.5 16 11.5ZM24.5 15.999C24.4974 13.7458 23.6011 11.5855 22.0078 9.99219C20.4145 8.39888 18.2542 7.50264 16.001 7.5H16C14.3189 7.5 12.6752 7.99863 11.2773 8.93262C9.87973 9.86655 8.79078 11.1941 8.14746 12.7471C7.50413 14.3002 7.33514 16.0094 7.66309 17.6582C7.99106 19.307 8.80051 20.822 9.98926 22.0107C11.178 23.1995 12.693 24.0089 14.3418 24.3369C15.9906 24.6649 17.6998 24.4959 19.2529 23.8525C20.8059 23.2092 22.1335 22.1203 23.0674 20.7227C24.0014 19.3248 24.5 17.6811 24.5 16V15.999Z" fill="#1C64F2" stroke="#1C64F2"/>
</svg>
