<svg width="32" height="32" viewBox="0 0 32 32" fill="none" xmlns="http://www.w3.org/2000/svg">
<g clip-path="url(#clip0_16864_11066)">
<path d="M16 0C12.8355 0 9.74207 0.938383 7.11088 2.69649C4.4797 4.45459 2.42894 6.95344 1.21793 9.87706C0.00693254 12.8007 -0.309921 16.0177 0.307443 19.1214C0.924806 22.2251 2.44866 25.0761 4.6863 27.3137C6.92394 29.5513 9.77487 31.0752 12.8786 31.6926C15.9823 32.3099 19.1993 31.9931 22.1229 30.7821C25.0466 29.5711 27.5454 27.5203 29.3035 24.8891C31.0616 22.2579 32 19.1645 32 16C31.9953 11.758 30.3081 7.69101 27.3086 4.69144C24.309 1.69186 20.242 0.00465855 16 0ZM16 24C15.6836 24 15.3742 23.9062 15.1111 23.7303C14.848 23.5545 14.6429 23.3046 14.5218 23.0123C14.4007 22.7199 14.369 22.3982 14.4307 22.0878C14.4925 21.7775 14.6449 21.4924 14.8686 21.2686C15.0924 21.0449 15.3775 20.8925 15.6879 20.8307C15.9982 20.769 16.3199 20.8007 16.6123 20.9218C16.9047 21.0429 17.1545 21.248 17.3304 21.5111C17.5062 21.7742 17.6 22.0835 17.6 22.4C17.6 22.8243 17.4314 23.2313 17.1314 23.5314C16.8313 23.8314 16.4244 24 16 24ZM17.6 17.6C17.6 18.0243 17.4314 18.4313 17.1314 18.7314C16.8313 19.0314 16.4244 19.2 16 19.2C15.5757 19.2 15.1687 19.0314 14.8686 18.7314C14.5686 18.4313 14.4 18.0243 14.4 17.6V9.6C14.4 9.17565 14.5686 8.76869 14.8686 8.46863C15.1687 8.16857 15.5757 8 16 8C16.4244 8 16.8313 8.16857 17.1314 8.46863C17.4314 8.76869 17.6 9.17565 17.6 9.6V17.6Z" fill="#F05252"/>
</g>
<defs>
<clipPath id="clip0_16864_11066">
<rect width="32" height="32" fill="white"/>
</clipPath>
</defs>
</svg>
