<svg width="15" height="15" viewBox="0 0 15 15" fill="none" xmlns="http://www.w3.org/2000/svg">
<path d="M7.5 0C6.01664 0 4.56659 0.439867 3.33323 1.26398C2.09986 2.08809 1.13856 3.25943 0.570907 4.62987C0.00324963 6.00032 -0.145275 7.50832 0.144114 8.96317C0.433503 10.418 1.14781 11.7544 2.1967 12.8033C3.2456 13.8522 4.58197 14.5665 6.03683 14.8559C7.49168 15.1453 8.99968 14.9967 10.3701 14.4291C11.7406 13.8614 12.9119 12.9001 13.736 11.6668C14.5601 10.4334 15 8.98336 15 7.5C14.9978 5.51154 14.2069 3.60516 12.8009 2.19911C11.3948 0.793061 9.48846 0.0021837 7.5 0ZM7.125 3C7.34751 3 7.56501 3.06598 7.75002 3.1896C7.93502 3.31321 8.07922 3.48891 8.16437 3.69448C8.24952 3.90005 8.27179 4.12625 8.22839 4.34448C8.18498 4.5627 8.07783 4.76316 7.9205 4.92049C7.76316 5.07783 7.56271 5.18497 7.34448 5.22838C7.12625 5.27179 6.90005 5.24951 6.69448 5.16436C6.48892 5.07921 6.31322 4.93502 6.1896 4.75001C6.06598 4.56501 6 4.3475 6 4.125C6 3.82663 6.11853 3.54048 6.32951 3.3295C6.54049 3.11853 6.82663 3 7.125 3ZM9 11.25H6C5.80109 11.25 5.61032 11.171 5.46967 11.0303C5.32902 10.8897 5.25 10.6989 5.25 10.5C5.25 10.3011 5.32902 10.1103 5.46967 9.96967C5.61032 9.82901 5.80109 9.75 6 9.75H6.75V7.5H6C5.80109 7.5 5.61032 7.42098 5.46967 7.28033C5.32902 7.13968 5.25 6.94891 5.25 6.75C5.25 6.55109 5.32902 6.36032 5.46967 6.21967C5.61032 6.07902 5.80109 6 6 6H7.5C7.69891 6 7.88968 6.07902 8.03033 6.21967C8.17098 6.36032 8.25 6.55109 8.25 6.75V9.75H9C9.19891 9.75 9.38968 9.82901 9.53033 9.96967C9.67098 10.1103 9.75 10.3011 9.75 10.5C9.75 10.6989 9.67098 10.8897 9.53033 11.0303C9.38968 11.171 9.19891 11.25 9 11.25Z" fill="black" fill-opacity="0.3"/>
</svg>
