<svg width="20" height="20" viewBox="0 0 20 20" fill="none" xmlns="http://www.w3.org/2000/svg">
<path d="M18.7816 7.17659C18.5936 7.00108 18.4453 6.78738 18.3468 6.54985C18.2484 6.31232 18.2019 6.05645 18.2105 5.79946C18.227 5.26941 18.1347 4.74159 17.9394 4.24855C17.744 3.75551 17.4497 3.30769 17.0746 2.93269C16.7012 2.55636 16.2537 2.26166 15.7604 2.06725C15.2672 1.87284 14.7389 1.78297 14.209 1.80333C13.9521 1.80658 13.6972 1.75714 13.4601 1.65807C13.223 1.55899 13.0087 1.41238 12.8305 1.22729C12.4687 0.839997 12.0311 0.531198 11.5449 0.320072C11.0587 0.108946 10.5342 0 10.0041 0C9.47404 0 8.94961 0.108946 8.46341 0.320072C7.9772 0.531198 7.53961 0.839997 7.1778 1.22729C6.99904 1.41139 6.78457 1.55707 6.54753 1.65541C6.31048 1.75375 6.05585 1.80268 5.79923 1.7992C5.26876 1.77783 4.73969 1.86764 4.246 2.06285C3.75232 2.25806 3.30494 2.55435 2.93262 2.93269C2.55846 3.30812 2.26511 3.75614 2.07065 4.24916C1.87619 4.74218 1.78472 5.26978 1.80188 5.79946C1.81 6.05676 1.76287 6.31282 1.66365 6.55037C1.56443 6.78792 1.41544 7.00146 1.2267 7.17659C0.839563 7.53845 0.530915 7.97596 0.3199 8.462C0.108884 8.94803 0 9.47222 0 10.0021C0 10.5319 0.108884 11.0561 0.3199 11.5421C0.530915 12.0282 0.839563 12.4657 1.2267 12.8275C1.41469 13.003 1.56291 13.2167 1.66141 13.4543C1.75991 13.6918 1.8064 13.9477 1.79775 14.2047C1.77946 14.7343 1.87031 15.262 2.06465 15.755C2.259 16.2481 2.55269 16.6959 2.92748 17.0707C3.30227 17.4454 3.75014 17.7392 4.24328 17.9336C4.73642 18.128 5.26428 18.219 5.79406 18.2008C6.05115 18.1951 6.30661 18.243 6.54414 18.3414C6.78168 18.4399 6.99608 18.5868 7.17367 18.7727C7.53548 19.16 7.97307 19.4688 8.45928 19.6799C8.94548 19.8911 9.46991 20 10 20C10.5301 20 11.0545 19.8911 11.5407 19.6799C12.0269 19.4688 12.4645 19.16 12.8263 18.7727C13.0035 18.5865 13.2177 18.4394 13.4551 18.3409C13.6925 18.2424 13.9479 18.1947 14.2049 18.2008C14.7348 18.2191 15.2628 18.1282 15.756 17.9339C16.2493 17.7395 16.6973 17.4459 17.0722 17.0711C17.4471 16.6963 17.7409 16.2484 17.9353 15.7553C18.1297 15.2622 18.2205 14.7344 18.2022 14.2047C18.1936 13.9477 18.2401 13.6918 18.3386 13.4543C18.4371 13.2167 18.5853 13.003 18.7733 12.8275C19.1604 12.4657 19.4691 12.0282 19.6801 11.5421C19.8911 11.0561 20 10.5319 20 10.0021C20 9.47222 19.8911 8.94803 19.6801 8.462C19.4691 7.97596 19.1604 7.53845 18.7733 7.17659H18.7816ZM7.63629 13.8289C7.44153 14.0169 7.18069 14.121 6.90993 14.1186C6.63918 14.1163 6.38018 14.0077 6.18872 13.8163C5.99726 13.6249 5.88866 13.366 5.88631 13.0953C5.88395 12.8247 5.98804 12.5639 6.17614 12.3692L12.372 6.17523C12.5667 5.98718 12.8276 5.88313 13.0983 5.88548C13.3691 5.88784 13.6281 5.9964 13.8195 6.18781C14.011 6.37921 14.1196 6.63813 14.122 6.9088C14.1243 7.17947 14.0202 7.44024 13.8321 7.63494L7.63629 13.8289ZM13.102 13.6152C13.102 13.9215 13.0112 14.2209 12.841 14.4755C12.6708 14.7301 12.4289 14.9286 12.1459 15.0458C11.8628 15.163 11.5514 15.1937 11.2509 15.1339C10.9504 15.0742 10.6744 14.9267 10.4578 14.7102C10.2412 14.4936 10.0937 14.2177 10.0339 13.9173C9.97413 13.6169 10.0048 13.3056 10.122 13.0226C10.2393 12.7397 10.4378 12.4978 10.6925 12.3277C10.9473 12.1575 11.2467 12.0667 11.5531 12.0667C11.9639 12.0667 12.3579 12.2299 12.6484 12.5203C12.9389 12.8107 13.102 13.2045 13.102 13.6152ZM6.90622 6.38892C6.90622 6.08266 6.99706 5.78328 7.16726 5.52863C7.33746 5.27398 7.57938 5.07551 7.86241 4.9583C8.14545 4.8411 8.45689 4.81044 8.75736 4.87019C9.05783 4.92993 9.33383 5.07741 9.55045 5.29397C9.76708 5.51053 9.9146 5.78645 9.97437 6.08683C10.0341 6.3872 10.0035 6.69855 9.88622 6.9815C9.76899 7.26445 9.57045 7.50629 9.31573 7.67644C9.061 7.84659 8.76153 7.93741 8.45517 7.93741C8.04436 7.93741 7.65038 7.77427 7.35989 7.48387C7.06941 7.19347 6.90622 6.79961 6.90622 6.38892Z" fill="#6B7280"/>
</svg>
