<svg width="12" height="12" viewBox="0 0 12 12" fill="none" xmlns="http://www.w3.org/2000/svg">
<g clip-path="url(#clip0_17139_9012)">
<path d="M11.0102 1.83762L6.21021 0.0375898C6.0747 -0.0125299 5.92572 -0.0125299 5.79021 0.0375898L0.990209 1.83762C0.875545 1.88032 0.776677 1.95707 0.706863 2.05755C0.637048 2.15804 0.599624 2.27747 0.599609 2.39983C0.616776 4.27723 1.08794 6.12259 1.97288 7.77842C2.85783 9.43424 4.13027 10.8514 5.68161 11.9088C5.77697 11.9684 5.88716 12 5.99961 12C6.11206 12 6.22225 11.9684 6.31761 11.9088C7.86895 10.8514 9.14139 9.43424 10.0263 7.77842C10.9113 6.12259 11.3824 4.27723 11.3996 2.39983C11.3997 2.27761 11.3624 2.15829 11.2928 2.05781C11.2233 1.95734 11.1247 1.88052 11.0102 1.83762ZM8.82381 4.62407L5.82381 7.62412C5.71131 7.73665 5.55873 7.79989 5.39961 7.79993C5.37981 7.79993 5.36061 7.79993 5.33961 7.79693C5.25135 7.78816 5.16612 7.75994 5.09008 7.71429C5.01403 7.66864 4.94905 7.6067 4.89981 7.53292L3.69981 5.73289C3.65608 5.66733 3.62569 5.5938 3.61038 5.5165C3.59506 5.4392 3.59512 5.35964 3.61056 5.28236C3.62599 5.20508 3.65649 5.1316 3.70032 5.06611C3.74415 5.00062 3.80045 4.94441 3.86601 4.90067C3.93157 4.85694 4.00509 4.82655 4.08239 4.81124C4.15969 4.79592 4.23925 4.79599 4.31653 4.81142C4.39381 4.82685 4.46729 4.85736 4.53278 4.90119C4.59827 4.94502 4.65448 5.00132 4.69821 5.06688L5.49201 6.2585L7.97481 3.77566C8.08797 3.66636 8.23953 3.60588 8.39685 3.60725C8.55417 3.60861 8.70466 3.67172 8.8159 3.78296C8.92715 3.89421 8.99025 4.0447 8.99161 4.20202C8.99298 4.35934 8.9325 4.51091 8.82321 4.62407H8.82381Z" fill="#E3A008"/>
</g>
<defs>
<clipPath id="clip0_17139_9012">
<rect width="12" height="12" fill="white"/>
</clipPath>
</defs>
</svg>
