<svg width="15" height="16" viewBox="0 0 15 16" fill="none" xmlns="http://www.w3.org/2000/svg">
<path d="M13.8808 2.45016L7.4808 0.0501197C7.30011 -0.0167066 7.10149 -0.0167066 6.9208 0.0501197L0.5208 2.45016C0.367914 2.5071 0.23609 2.60942 0.143004 2.7434C0.0499184 2.87739 2.00221e-05 3.03663 0 3.19977C0.0228885 5.70297 0.651106 8.16346 1.83103 10.3712C3.01096 12.579 4.70755 14.4685 6.776 15.8784C6.90315 15.9579 7.05006 16 7.2 16C7.34994 16 7.49685 15.9579 7.624 15.8784C9.69245 14.4685 11.389 12.579 12.569 10.3712C13.7489 8.16346 14.3771 5.70297 14.4 3.19977C14.4001 3.03682 14.3504 2.87771 14.2577 2.74375C14.1649 2.60979 14.0334 2.50736 13.8808 2.45016ZM10.9656 6.16543L6.9656 10.1655C6.81561 10.3155 6.61216 10.3999 6.4 10.3999C6.3736 10.3999 6.348 10.3999 6.32 10.3959C6.20231 10.3842 6.08869 10.3466 5.98729 10.2857C5.88589 10.2249 5.79925 10.1423 5.7336 10.0439L4.1336 7.64385C4.07529 7.55644 4.03477 7.45841 4.01435 7.35534C3.99394 7.25227 3.99402 7.14618 4.01459 7.04315C4.03517 6.94011 4.07584 6.84213 4.13428 6.75481C4.19272 6.66749 4.26779 6.59254 4.3552 6.53423C4.44261 6.47593 4.54064 6.4354 4.64371 6.41499C4.74678 6.39457 4.85286 6.39465 4.95589 6.41523C5.05893 6.4358 5.1569 6.47647 5.24422 6.53492C5.33154 6.59336 5.40649 6.66843 5.4648 6.75584L6.5232 8.34466L9.8336 5.03421C9.98448 4.88848 10.1866 4.80784 10.3963 4.80966C10.6061 4.81149 10.8067 4.89562 10.9551 5.04395C11.1034 5.19228 11.1875 5.39293 11.1893 5.6027C11.1912 5.81246 11.1105 6.01454 10.9648 6.16543H10.9656Z" fill="#31C48D"/>
</svg>
