<svg width="20" height="20" viewBox="0 0 20 20" fill="none" xmlns="http://www.w3.org/2000/svg">
<g opacity="0.7" clip-path="url(#clip0_16862_8226)">
<path d="M16.3159 1.32985C16.011 0.492279 15.2236 0 14.42 0C13.6736 0 12.9369 0.420148 12.5886 1.16715C12.1181 2.17614 12.5562 3.3799 13.5652 3.85041C13.8363 3.97683 14.1229 4.04092 14.417 4.04092C15.8124 4.04092 16.7972 2.65197 16.3159 1.32985Z" fill="#3F83F8"/>
<path d="M16.5606 18.0035C16.234 17.8514 15.846 17.9925 15.6938 18.3189C15.5422 18.6441 15.1548 18.7857 14.8293 18.6355L10.6073 16.6204L10.6019 16.6181L11.9808 13.6611C12.1893 13.2129 12.128 12.694 11.8207 12.3068L9.86231 9.83898L11.0552 8.88488C11.1738 8.98184 14.8599 10.687 14.8164 10.6666C15.4742 10.9734 16.2498 10.6796 16.55 10.0357C16.8534 9.3848 16.5699 8.60555 15.919 8.30211L14.051 7.43105L12.972 4.4666C12.7292 3.79949 11.9801 3.43359 11.2934 3.68359C11.0844 3.76473 9.27286 5.22332 8.15907 6.11805C7.20513 5.6732 6.0738 5.14566 5.47751 4.86758L5.75313 4.27641C5.90536 3.94992 5.76411 3.56184 5.43767 3.40961C5.11122 3.25746 4.72309 3.39863 4.57087 3.72512L4.29524 4.31625L3.70407 4.04063C3.37763 3.88844 2.9895 4.02965 2.83727 4.35609C2.68505 4.68262 2.82626 5.0707 3.15274 5.22293L3.74392 5.49855L3.46829 6.08973C3.26614 6.5232 3.58509 7.01777 4.05899 7.01777C4.30462 7.01777 4.53993 6.87832 4.65056 6.64098L4.92618 6.04988L7.01724 7.02496C6.97376 7.05895 6.68946 7.26305 6.36724 7.51836C6.08868 7.73941 5.91388 8.05367 5.87509 8.40324C5.8372 8.74414 5.93392 9.07805 6.14724 9.34344L9.27376 13.2925L8.23728 15.5152L1.93196 12.575C1.60548 12.4229 1.21743 12.564 1.06517 12.8905C0.912939 13.217 1.05419 13.6051 1.38063 13.7573L14.2704 19.8142L14.2756 19.8168C15.2536 20.2728 16.4201 19.8481 16.8761 18.8703C17.0283 18.5438 16.8871 18.1557 16.5606 18.0035Z" fill="#3F83F8"/>
</g>
<defs>
<clipPath id="clip0_16862_8226">
<rect width="20" height="20" fill="white"/>
</clipPath>
</defs>
</svg>
