<svg width="20" height="20" viewBox="0 0 20 20" fill="none" xmlns="http://www.w3.org/2000/svg">
<g opacity="0.7" clip-path="url(#clip0_16862_8241)">
<path d="M4.3481 6.26384L1.30904 5.31889C0.777053 5.153 0.211546 5.45004 0.0456132 5.98288C-0.119476 6.51491 0.177608 7.0808 0.710021 7.24588L4.14224 8.31312C4.23991 8.3438 4.34084 8.35875 4.44177 8.35875C4.6004 8.35875 4.75823 8.32118 4.90191 8.24773L6.81076 7.26969L7.76094 10.5525C7.65803 10.5876 7.55913 10.6349 7.46791 10.6966L5.56311 11.9968C5.02424 12.3645 4.87368 13.0931 5.22243 13.6445L7.1547 16.6969L5.00727 17.025C3.43992 17.2644 2.36501 18.0168 2.6084 18.7046C2.85061 19.3924 4.31868 19.7617 5.88683 19.528L16.9758 17.8811C18.5439 17.6478 19.8954 16.843 19.9943 16.0829C20.0932 15.3232 18.9029 14.9014 17.335 15.1408L15.2522 15.4593L13.0637 11.1483C13.0503 11.1225 13.0338 11.0982 13.0188 11.0732L11.8402 6.41149L14.5462 6.11441C14.7755 6.08938 14.9898 5.98604 15.1521 5.82175L17.8214 3.13103C18.2141 2.73546 18.2117 2.09651 17.8158 1.70415C17.4206 1.31142 16.7816 1.31383 16.3888 1.70981L13.9706 4.14702L11.2403 4.44693C11.1693 4.45461 11.101 4.47036 11.036 4.49133L6.47767 5.27562C6.33761 5.28208 6.19755 5.3156 6.06518 5.38381L4.3481 6.26384ZM8.52387 12.9083H11.24L12.7311 15.8448L9.7675 16.2977L7.89378 13.3377L8.52387 12.9083Z" fill="#3F83F8"/>
<path d="M8.21948 4.43937C9.33434 4.43937 10.2381 3.5356 10.2381 2.42074C10.2381 1.30587 9.33434 0.4021 8.21948 0.4021C7.10462 0.4021 6.20085 1.30587 6.20085 2.42074C6.20085 3.5356 7.10462 4.43937 8.21948 4.43937Z" fill="#3F83F8"/>
</g>
<defs>
<clipPath id="clip0_16862_8241">
<rect width="20" height="20" fill="white"/>
</clipPath>
</defs>
</svg>
