<svg width="863" height="420" viewBox="0 0 863 420" fill="none" xmlns="http://www.w3.org/2000/svg">
<mask id="mask0_16864_11190" style="mask-type:luminance" maskUnits="userSpaceOnUse" x="0" y="0" width="863" height="420">
<path d="M862.105 0H0V420H862.105V0Z" fill="white"/>
</mask>
<g mask="url(#mask0_16864_11190)">
<mask id="mask1_16864_11190" style="mask-type:luminance" maskUnits="userSpaceOnUse" x="-74" y="-109" width="1012" height="643">
<path d="M937.353 -108.81H-73.0942V533.089H937.353V-108.81Z" fill="white"/>
</mask>
<g mask="url(#mask1_16864_11190)">
<path d="M440.992 249.547C424.646 232.531 415.574 209.687 415.739 185.954C415.904 162.221 425.291 139.508 441.871 122.726C458.547 105.957 481.087 96.5262 504.594 96.484C528.1 96.4419 550.674 105.791 567.408 122.501C584.143 139.211 593.687 161.93 593.966 185.722C594.245 209.514 585.237 232.457 568.899 249.564C568.456 249.129 546.609 231.632 538.829 225.376L540.944 223.01C548.062 215.806 552.91 206.627 554.874 196.633C556.838 186.64 555.831 176.281 551.979 166.868C548.127 157.454 541.604 149.408 533.234 143.747C524.865 138.086 515.024 135.065 504.958 135.065C494.892 135.065 485.052 138.086 476.682 143.747C468.313 149.408 461.79 157.454 457.938 166.868C454.086 176.281 453.078 186.64 455.042 196.633C457.006 206.627 461.854 215.806 468.972 223.01C468.972 223.01 469.564 223.716 471.105 225.356C463.282 231.635 441.303 249.231 440.989 249.551" fill="#F7824D"/>
</g>
<mask id="mask2_16864_11190" style="mask-type:luminance" maskUnits="userSpaceOnUse" x="-74" y="-109" width="1012" height="643">
<path d="M937.353 -108.81H-73.0942V533.089H937.353V-108.81Z" fill="white"/>
</mask>
<g mask="url(#mask2_16864_11190)">
<path d="M119.927 262.875C109.236 259.034 99.3982 253.095 90.979 245.398L115.339 215.709C121.09 220.377 127.444 224.226 134.226 227.149C140.163 229.894 146.588 231.393 153.113 231.553C165.369 231.553 171.498 227.697 171.501 219.985C171.539 218.838 171.338 217.696 170.909 216.633C170.481 215.571 169.836 214.612 169.016 213.82C166.717 211.817 164.117 210.201 161.313 209.032C157.834 207.436 153.941 205.801 149.632 204.125L129.507 195.577C120.291 192.012 112.183 186.019 106.022 178.218C99.8615 170.177 96.6543 160.218 96.9492 150.047C96.912 140.945 99.5974 132.045 104.652 124.517C110.035 116.497 117.465 110.104 126.151 106.019C135.811 101.382 146.396 99.0565 157.086 99.2229C166.909 99.2668 176.64 101.143 185.791 104.757C195.167 108.352 203.68 113.926 210.764 121.106L189.394 148.274C184.441 144.633 179.056 141.635 173.365 139.351C168.156 137.398 162.64 136.418 157.086 136.459C152.757 136.219 148.45 137.221 144.66 139.351C143.259 140.185 142.105 141.384 141.318 142.823C140.531 144.261 140.14 145.888 140.186 147.532C140.161 148.718 140.393 149.896 140.865 150.982C141.337 152.068 142.039 153.036 142.92 153.819C145.458 155.936 148.31 157.635 151.372 158.85C155.175 160.53 159.399 162.206 164.043 163.879L183.676 171.681C204.713 180.063 215.234 194.987 215.238 216.451C215.281 225.693 212.646 234.745 207.66 242.486C202.244 250.772 194.678 257.386 185.791 261.604C175.267 266.607 163.737 269.066 152.113 268.785C141.129 268.716 130.24 266.715 119.932 262.873" fill="#0A0203"/>
</g>
<mask id="mask3_16864_11190" style="mask-type:luminance" maskUnits="userSpaceOnUse" x="-74" y="-109" width="1012" height="643">
<path d="M937.353 -108.81H-73.0942V533.089H937.353V-108.81Z" fill="white"/>
</mask>
<g mask="url(#mask3_16864_11190)">
<path d="M292.5 135.464H249.758V99.2417H377.986V135.464H335.242V262.75H292.5V135.464Z" fill="#0A0203"/>
</g>
<mask id="mask4_16864_11190" style="mask-type:luminance" maskUnits="userSpaceOnUse" x="-74" y="-109" width="1012" height="643">
<path d="M937.353 -108.81H-73.0942V533.089H937.353V-108.81Z" fill="white"/>
</mask>
<g mask="url(#mask4_16864_11190)">
<path d="M636.412 102.053H679.154V162.929H680.145L720.902 102.053H767.624L719.412 168.468L777.064 265.562H730.345L694.56 202.67L679.154 224.806V265.562H636.412V102.053Z" fill="#0A0203"/>
</g>
<mask id="mask5_16864_11190" style="mask-type:luminance" maskUnits="userSpaceOnUse" x="-74" y="-109" width="1012" height="643">
<path d="M937.353 -108.81H-73.0942V533.089H937.353V-108.81Z" fill="white"/>
</mask>
<g mask="url(#mask5_16864_11190)">
<path d="M861.342 421.575H697.611L504.766 268.112L324.315 413.012L250.204 352.136L163.54 421.575H2.91992V2.70898H861.345V421.575H861.342ZM707.625 392.58H832.697V31.7042H31.5629V392.58H153.584L250.439 314.978L324.526 375.839L504.687 231.169L707.625 392.58Z" fill="#0A0203"/>
</g>
</g>
</svg>
