<svg width="12" height="12" viewBox="0 0 12 12" fill="none" xmlns="http://www.w3.org/2000/svg">
<g clip-path="url(#clip0_17502_13120)">
<path d="M10.0369 0.00527551L6.20696 0C5.8599 0.00104957 5.52723 0.139892 5.28105 0.386436L0.383175 5.32173C0.137828 5.56906 0 5.90447 0 6.25419C0 6.60392 0.137828 6.93932 0.383175 7.18665L4.77523 11.6135C4.89676 11.736 5.04106 11.8332 5.19987 11.8996C5.35869 11.9659 5.52891 12 5.70082 12C5.87273 12 6.04295 11.9659 6.20177 11.8996C6.36058 11.8332 6.50488 11.736 6.62641 11.6135L11.5773 6.62282C11.7105 6.49929 11.8169 6.34924 11.8897 6.18215C11.9624 6.01507 12 5.83459 12 5.65212V1.98362C12 1.45893 11.7932 0.955729 11.425 0.584718C11.0569 0.213707 10.5576 0.00527551 10.0369 0.00527551V0.00527551ZM9.38257 3.62696C9.38257 3.8226 9.325 4.01384 9.21715 4.17651C9.10929 4.33918 8.956 4.46596 8.77665 4.54083C8.59729 4.6157 8.39994 4.63529 8.20954 4.59712C8.01914 4.55895 7.84425 4.46474 7.70698 4.32641C7.56971 4.18807 7.47622 4.01181 7.43835 3.81993C7.40048 3.62805 7.41992 3.42917 7.49421 3.24842C7.5685 3.06767 7.6943 2.91318 7.85572 2.80449C8.01713 2.6958 8.2069 2.63779 8.40103 2.63779C8.66135 2.63779 8.91101 2.742 9.09508 2.92751C9.27915 3.11301 9.38257 3.36461 9.38257 3.62696V3.62696Z" fill="#C27803"/>
</g>
<defs>
<clipPath id="clip0_17502_13120">
<rect width="12" height="12" fill="white"/>
</clipPath>
</defs>
</svg>
