<svg width="16" height="16" viewBox="0 0 16 16" fill="none" xmlns="http://www.w3.org/2000/svg">
<path d="M5.2 7.57895C7.18823 7.57895 8.8 5.88234 8.8 3.78947C8.8 1.69661 7.18823 0 5.2 0C3.21177 0 1.6 1.69661 1.6 3.78947C1.6 5.88234 3.21177 7.57895 5.2 7.57895Z" fill="#9CA3AF"/>
<path d="M6.4 8.42105H4C2.93952 8.42239 1.92285 8.86643 1.17298 9.65576C0.423106 10.4451 0.00127029 11.5153 0 12.6316V15.1579C0 15.3812 0.0842854 15.5954 0.234315 15.7534C0.384344 15.9113 0.587827 16 0.8 16H9.6C9.81217 16 10.0157 15.9113 10.1657 15.7534C10.3157 15.5954 10.4 15.3812 10.4 15.1579V12.6316C10.3987 11.5153 9.97689 10.4451 9.22702 9.65576C8.47715 8.86643 7.46048 8.42239 6.4 8.42105Z" fill="#9CA3AF"/>
<path d="M15.2 5.89474H13.6V4.21053C13.6 3.98719 13.5157 3.77299 13.3657 3.61507C13.2157 3.45714 13.0122 3.36842 12.8 3.36842C12.5878 3.36842 12.3843 3.45714 12.2343 3.61507C12.0843 3.77299 12 3.98719 12 4.21053V5.89474H10.4C10.1878 5.89474 9.98434 5.98346 9.83431 6.14138C9.68429 6.29931 9.6 6.5135 9.6 6.73684C9.6 6.96018 9.68429 7.17438 9.83431 7.3323C9.98434 7.49023 10.1878 7.57895 10.4 7.57895H12V9.26316C12 9.4865 12.0843 9.70069 12.2343 9.85862C12.3843 10.0165 12.5878 10.1053 12.8 10.1053C13.0122 10.1053 13.2157 10.0165 13.3657 9.85862C13.5157 9.70069 13.6 9.4865 13.6 9.26316V7.57895H15.2C15.4122 7.57895 15.6157 7.49023 15.7657 7.3323C15.9157 7.17438 16 6.96018 16 6.73684C16 6.5135 15.9157 6.29931 15.7657 6.14138C15.6157 5.98346 15.4122 5.89474 15.2 5.89474Z" fill="#9CA3AF"/>
</svg>
