<svg width="24" height="24" viewBox="0 0 24 24" fill="none" xmlns="http://www.w3.org/2000/svg">
<g clip-path="url(#clip0_17333_11361)">
<path d="M12 0C9.62663 0 7.30655 0.703788 5.33316 2.02236C3.35977 3.34094 1.8217 5.21508 0.913451 7.4078C0.00519941 9.60051 -0.232441 12.0133 0.230582 14.3411C0.693605 16.6689 1.83649 18.807 3.51472 20.4853C5.19295 22.1635 7.33115 23.3064 9.65892 23.7694C11.9867 24.2324 14.3995 23.9948 16.5922 23.0865C18.7849 22.1783 20.6591 20.6402 21.9776 18.6668C23.2962 16.6934 24 14.3734 24 12C23.9965 8.81847 22.7311 5.76826 20.4814 3.51858C18.2317 1.2689 15.1815 0.00349392 12 0ZM12 6C12.712 6 13.408 6.21113 14.0001 6.60671C14.5921 7.00228 15.0535 7.56452 15.326 8.22234C15.5984 8.88015 15.6697 9.60399 15.5308 10.3023C15.3919 11.0007 15.0491 11.6421 14.5456 12.1456C14.0421 12.6491 13.4007 12.9919 12.7023 13.1308C12.004 13.2697 11.2802 13.1984 10.6223 12.926C9.96453 12.6535 9.40229 12.1921 9.00671 11.6C8.61114 11.008 8.4 10.312 8.4 9.6C8.4 8.64522 8.77929 7.72954 9.45442 7.05441C10.1295 6.37928 11.0452 6 12 6ZM12 21.6C9.88705 21.6023 7.82038 20.9812 6.0588 19.8144C6.19803 18.6541 6.75711 17.5849 7.63055 16.8085C8.50399 16.0321 9.63138 15.6022 10.8 15.6H13.2C14.3686 15.6022 15.496 16.0321 16.3695 16.8085C17.2429 17.5849 17.802 18.6541 17.9412 19.8144C16.1796 20.9812 14.113 21.6023 12 21.6Z" fill="#3F83F8"/>
</g>
<defs>
<clipPath id="clip0_17333_11361">
<rect width="24" height="24" fill="white"/>
</clipPath>
</defs>
</svg>
