<svg width="24" height="24" viewBox="0 0 24 24" fill="none" xmlns="http://www.w3.org/2000/svg">
<g clip-path="url(#clip0_17161_26578)">
<path d="M13.76 4.73384L10.2507 0.485011C10.1386 0.350405 9.99973 0.238778 9.84218 0.156717C9.68463 0.0746547 9.51162 0.0238196 9.33334 0.00720995C8.97539 -0.0238709 8.61923 0.0827989 8.34267 0.303909L2.89467 4.73384H13.76Z" fill="#3F83F8"/>
<path d="M10.6667 16.2935V15.0091C10.6667 13.6465 11.2286 12.3398 12.2288 11.3763C13.229 10.4128 14.5855 9.87148 16 9.87148H22.6667V8.58707C22.6667 8.24643 22.5262 7.91973 22.2761 7.67886C22.0261 7.43798 21.687 7.30266 21.3333 7.30266H1.33333C0.979711 7.30266 0.640573 7.43798 0.390524 7.67886C0.140476 7.91973 0 8.24643 0 8.58707V22.7156C0 23.0562 0.140476 23.3829 0.390524 23.6238C0.640573 23.8647 0.979711 24 1.33333 24H21.3333C21.687 24 22.0261 23.8647 22.2761 23.6238C22.5262 23.3829 22.6667 23.0562 22.6667 22.7156V21.4312H16C14.5855 21.4312 13.229 20.8899 12.2288 19.9264C11.2286 18.9629 10.6667 17.6561 10.6667 16.2935Z" fill="#3F83F8"/>
<path d="M22.6667 12.4403H16C15.2928 12.4403 14.6145 12.7109 14.1144 13.1927C13.6143 13.6744 13.3333 14.3278 13.3333 15.0091V16.2935C13.3333 16.9748 13.6143 17.6282 14.1144 18.11C14.6145 18.5917 15.2928 18.8624 16 18.8624H22.6667C23.0203 18.8624 23.3594 18.727 23.6095 18.4862C23.8595 18.2453 24 17.9186 24 17.5779V13.7247C24 13.3841 23.8595 13.0574 23.6095 12.8165C23.3594 12.5756 23.0203 12.4403 22.6667 12.4403ZM18 16.9357C17.7363 16.9357 17.4785 16.8604 17.2592 16.7193C17.04 16.5781 16.8691 16.3776 16.7682 16.1429C16.6672 15.9082 16.6408 15.6499 16.6923 15.4008C16.7437 15.1516 16.8707 14.9227 17.0572 14.7431C17.2437 14.5635 17.4812 14.4412 17.7399 14.3916C17.9985 14.342 18.2666 14.3675 18.5102 14.4647C18.7539 14.5619 18.9621 14.7265 19.1086 14.9378C19.2551 15.149 19.3333 15.3973 19.3333 15.6513C19.3333 15.992 19.1929 16.3187 18.9428 16.5595C18.6928 16.8004 18.3536 16.9357 18 16.9357Z" fill="#3F83F8"/>
<path d="M15.684 4.73384H19.0933L15.584 0.485009C15.3637 0.218283 15.0424 0.046786 14.6908 0.00824617C14.3393 -0.0302936 13.9862 0.0672806 13.7093 0.279504C13.4324 0.491727 13.2544 0.801214 13.2144 1.13988C13.1744 1.47855 13.2757 1.81866 13.496 2.08539L15.684 4.73384Z" fill="#3F83F8"/>
</g>
<defs>
<clipPath id="clip0_17161_26578">
<rect width="24" height="24" fill="white"/>
</clipPath>
</defs>
</svg>
